UNKNOWN
version=1
nRows=52
nColumns=9
inDegrees=no
endheader
time	time	Pelvic Tilt	Right Hip Flexion	Right Knee Angle	Right Ankle Angle	Left Hip Flexion	Left Knee Angle	Left Ankle Angle
      0.00000000	      5.00000000	     -0.54195245	    -12.45632886	     -7.49600959	     -4.35763953	      3.84958810	    -56.55292629	     -9.25812958
      1.00000000	      5.01000000	     -0.61626412	    -13.60236898	     -6.93747083	     -4.03473904	      5.19479329	    -55.14497235	     -8.07115347
      2.00000000	      5.02000000	     -0.83914407	    -14.78007811	     -6.37926178	     -3.72896940	      6.37160933	    -53.45331304	     -7.10536344
      3.00000000	      5.03000000	     -1.18509460	    -15.97353062	     -5.81692783	     -3.43732580	      7.40174631	    -51.47420044	     -6.40460763
      4.00000000	      5.04000000	     -1.61791914	    -17.19639430	     -5.24776566	     -3.15085246	      8.26898998	    -49.20387235	     -5.87829172
      5.00000000	      5.05000000	     -2.14970827	    -18.44074381	     -4.66657018	     -2.87259272	      8.99021485	    -46.66311844	     -5.45275803
      6.00000000	      5.06000000	     -2.74703736	    -19.70062821	     -4.08637066	     -2.58753233	      9.56911056	    -43.85330306	     -5.03850877
      7.00000000	      5.07000000	     -3.38384963	    -20.96872326	     -3.51279152	     -2.28847605	     10.01003137	    -40.77628134	     -4.55088996
      8.00000000	      5.08000000	     -4.03428245	    -22.24477175	     -2.94815418	     -1.98359554	     10.30690549	    -37.43410155	     -3.92005852
      9.00000000	      5.09000000	     -4.69079666	    -23.51135217	     -2.40731856	     -1.66835468	     10.47706375	    -33.84983777	     -3.17076254
     10.00000000	      5.10000000	     -5.34873340	    -24.75214870	     -1.90913256	     -1.33907613	     10.54122330	    -30.06724683	     -2.35528939
     11.00000000	      5.11000000	     -5.99398982	    -25.95811052	     -1.46795381	     -1.00582997	     10.52415657	    -26.14887914	     -1.54433309
     12.00000000	      5.12000000	     -6.60771418	    -27.12062498	     -1.10490802	     -0.66255072	     10.44768679	    -22.17194520	     -0.79761109
     13.00000000	      5.13000000	     -7.16293510	    -28.20804460	     -0.85081917	     -0.27834983	     10.34879394	    -18.22038090	     -0.20768187
     14.00000000	      5.14000000	     -7.65258852	    -29.20090219	     -0.72760177	      0.10240851	     10.25475615	    -14.41035041	      0.23352513
     15.00000000	      5.15000000	     -8.06240097	    -30.06552036	     -0.77152737	      0.47043900	     10.16194264	    -10.81413289	      0.46153808
     16.00000000	      5.16000000	     -8.38880743	    -30.84117040	     -0.96332273	      0.81257878	     10.01795718	     -7.51840419	      0.48277227
     17.00000000	      5.17000000	     -8.65260748	    -31.57011487	     -1.30913475	      1.13019935	      9.80706982	     -4.64314029	      0.32237248
     18.00000000	      5.18000000	     -8.86884300	    -32.19766440	     -1.85443913	      1.37397343	      9.53796985	     -2.31935191	      0.06025636
     19.00000000	      5.19000000	     -9.04515503	    -32.72327355	     -2.60176559	      1.55404377	      9.28661149	     -0.72139455	     -0.16500618
     20.00000000	      5.20000000	     -9.16756336	    -33.14428175	     -3.55218245	      1.65620605	      9.09079699	      0.06613076	     -0.30669654
     21.00000000	      5.21000000	     -9.21201956	    -33.45858377	     -4.70891702	      1.67287855	      8.95239695	      0.05764248	     -0.44164253
     22.00000000	      5.22000000	     -9.16222806	    -33.65073468	     -6.06968418	      1.55657216	      8.85486667	     -0.62860114	     -0.74337753
     23.00000000	      5.23000000	     -9.01274234	    -33.74068391	     -7.63201170	      1.32366889	      8.76186720	     -1.79245489	     -1.40725773
     24.00000000	      5.24000000	     -8.77461321	    -33.71023919	     -9.38649136	      0.86259572	      8.65139956	     -3.19709793	     -2.54486714
     25.00000000	      5.25000000	     -8.43410491	    -33.54254195	    -11.34322373	      0.12725802	      8.50872972	     -4.61225136	     -4.16434160
     26.00000000	      5.26000000	     -7.99727699	    -33.21561734	    -13.54191417	     -0.91989062	      8.28845375	     -5.89695578	     -6.18077807
     27.00000000	      5.27000000	     -7.45237308	    -32.73954242	    -15.96221676	     -2.49331184	      7.97126116	     -7.01249896	     -8.31718913
     28.00000000	      5.28000000	     -6.76008917	    -32.05627088	    -18.64766045	     -4.61313022	      7.62308728	     -8.09753527	    -10.07149782
     29.00000000	      5.29000000	     -5.95462481	    -31.16110227	    -21.59993648	     -7.37724843	      7.27481446	     -9.27397184	    -11.15896682
     30.00000000	      5.30000000	     -5.04278971	    -30.06502898	    -24.79824021	    -10.79722497	      6.94536566	    -10.62254915	    -11.42061570
     31.00000000	      5.31000000	     -4.09928675	    -28.76125343	    -28.19432649	    -14.80183880	      6.66940136	    -12.13265828	    -11.03234554
     32.00000000	      5.32000000	     -3.18569727	    -27.32557263	    -31.68102745	    -19.21793637	      6.36555805	    -13.67837417	    -10.17087615
     33.00000000	      5.33000000	     -2.40040664	    -25.78733146	    -35.13867474	    -23.78544369	      5.97613466	    -15.09786075	     -9.08539303
     34.00000000	      5.34000000	     -1.80129838	    -24.16260254	    -38.46798842	    -28.04058378	      5.45876230	    -16.26760422	     -7.89908734
     35.00000000	      5.35000000	     -1.39691487	    -22.63770619	    -41.56130273	    -31.38994764	      4.65764634	    -17.08744200	     -6.70004897
     36.00000000	      5.36000000	     -1.20235242	    -21.08239438	    -44.43506546	    -33.35331439	      3.67814797	    -17.55648774	     -5.57283027
     37.00000000	      5.37000000	     -1.18487606	    -19.51158596	    -47.05503060	    -33.72002125	      2.53602533	    -17.68661352	     -4.59939808
     38.00000000	      5.38000000	     -1.33889998	    -17.94258153	    -49.36319731	    -32.71060056	      1.26981583	    -17.52336494	     -3.86359893
     39.00000000	      5.39000000	     -1.58408596	    -16.30387442	    -51.34500611	    -30.72790443	     -0.02555237	    -17.13259960	     -3.33676314
     40.00000000	      5.40000000	     -1.90133093	    -14.55437817	    -52.99188782	    -28.32223918	     -1.27460008	    -16.59128451	     -2.98886830
     41.00000000	      5.41000000	     -2.21545429	    -12.74336388	    -54.30100445	    -25.95788487	     -2.46969462	    -15.96147771	     -2.77701883
     42.00000000	      5.42000000	     -2.53284907	    -10.87270584	    -55.28743736	    -23.90147235	     -3.62708722	    -15.27422906	     -2.65754646
     43.00000000	      5.43000000	     -2.82212549	     -8.96952546	    -55.96732113	    -22.21584704	     -4.73200091	    -14.58146187	     -2.54107085
     44.00000000	      5.44000000	     -3.06826568	     -7.07256670	    -56.34594276	    -20.78126630	     -5.81404736	    -13.88184769	     -2.39138941
     45.00000000	      5.45000000	     -3.30847001	     -5.25119726	    -56.39808403	    -19.55995914	     -6.87335388	    -13.21999502	     -2.17080798
     46.00000000	      5.46000000	     -3.52003189	     -3.50661326	    -56.14161936	    -18.30598967	     -7.94037369	    -12.56495524	     -1.88207891
     47.00000000	      5.47000000	     -3.69929906	     -1.85275948	    -55.58047175	    -16.98532996	     -8.97515307	    -11.96292935	     -1.51596306
     48.00000000	      5.48000000	     -3.84503346	     -0.32437437	    -54.70683015	    -15.55355836	     -9.99116031	    -11.41668027	     -1.08446505
     49.00000000	      5.49000000	     -3.95349718	      1.02618026	    -53.51003109	    -14.06497815	    -11.04018343	    -10.90597453	     -0.55617160
     50.00000000	      5.50000000	     -4.00263050	      2.21635462	    -51.99352423	    -12.61923770	    -12.08167500	    -10.41455432	     -0.09206379
     51.00000000	      5.51000000	     -4.00381469	      3.26034192	    -50.17616704	    -11.35023709	    -13.14000354	     -9.92637507	      0.38739044
